{
    "asset" : {
        "generator" : "Khronos glTF Blender I/O v3.4.50",
        "version" : "2.0"
    },
    "scene" : 0,
    "scenes" : [
        {
            "name" : "Scene",
            "nodes" : [
                9
            ]
        }
    ],
    "nodes" : [
        {
            "name" : "Bone.004",
            "rotation" : [
                -0.4173436164855957,
                -0.1250505894422531,
                0.07287074625492096,
                0.8971491456031799
            ],
            "scale" : [
                1,
                0.9999998807907104,
                0.9999998211860657
            ],
            "translation" : [
                9.455023359805637e-07,
                2.20141339302063,
                7.914304767098201e-09
            ]
        },
        {
            "name" : "Bone.005",
            "rotation" : [
                0.37897875905036926,
                6.532979018869511e-11,
                -1.9711579568593152e-07,
                0.9254055023193359
            ],
            "scale" : [
                1,
                0.9999999403953552,
                1
            ],
            "translation" : [
                9.455023359805637e-07,
                2.20141339302063,
                7.914304767098201e-09
            ]
        },
        {
            "children" : [
                0,
                1
            ],
            "name" : "Bone.003",
            "rotation" : [
                0.002018168568611145,
                -5.982653306091379e-08,
                0.005036868155002594,
                0.9999852776527405
            ],
            "scale" : [
                0.9999998807907104,
                0.9999999403953552,
                0.9999998211860657
            ],
            "translation" : [
                2.5898611966113094e-07,
                1.9944756031036377,
                4.6202330850064754e-09
            ]
        },
        {
            "name" : "Bone.006",
            "rotation" : [
                0.002018168568611145,
                -2.237389995496386e-10,
                0.005036868155002594,
                0.9999852776527405
            ],
            "scale" : [
                0.9999998807907104,
                0.9999999403953552,
                0.9999998211860657
            ],
            "translation" : [
                2.5898611966113094e-07,
                1.9944756031036377,
                4.6202330850064754e-09
            ]
        },
        {
            "children" : [
                2,
                3
            ],
            "name" : "Bone.002",
            "rotation" : [
                -0.000270879827439785,
                -0.002464890945702791,
                0.7003171443939209,
                0.7138275504112244
            ],
            "scale" : [
                0.9999998807907104,
                1,
                0.9999999403953552
            ],
            "translation" : [
                6.293703336268663e-10,
                2.8548688888549805,
                1.089574652723968e-09
            ]
        },
        {
            "children" : [
                4
            ],
            "name" : "Bone.001",
            "rotation" : [
                -0.0015607131645083427,
                -7.5814918091055e-05,
                0.0045133619569242,
                0.9999886155128479
            ],
            "scale" : [
                1,
                1,
                0.9999999403953552
            ],
            "translation" : [
                -6.583935618920123e-10,
                1.465111255645752,
                7.162605175636827e-09
            ]
        },
        {
            "name" : "IK_Ctrl",
            "rotation" : [
                2.175902693579701e-07,
                -2.3478681043798133e-07,
                0.7071066498756409,
                0.70710688829422
            ],
            "translation" : [
                -4.221540451049805,
                4.33994197845459,
                -0.016963455826044083
            ]
        },
        {
            "children" : [
                5,
                6
            ],
            "name" : "Bone",
            "rotation" : [
                9.276016624059453e-18,
                1.1983704695239794e-08,
                1.271333616159609e-08,
                1
            ],
            "translation" : [
                -0.01201529148966074,
                0.10616831481456757,
                0.05757787078619003
            ]
        },
        {
            "mesh" : 0,
            "name" : "Circle",
            "skin" : 0
        },
        {
            "children" : [
                8,
                7
            ],
            "name" : "Armature",
            "scale" : [
                2.9288313388824463,
                2.9288313388824463,
                2.9288313388824463
            ]
        }
    ],
    "meshes" : [
        {
            "name" : "Circle",
            "primitives" : [
                {
                    "attributes" : {
                        "POSITION" : 0,
                        "TEXCOORD_0" : 1,
                        "NORMAL" : 2,
                        "JOINTS_0" : 3,
                        "WEIGHTS_0" : 4
                    },
                    "indices" : 5
                }
            ]
        }
    ],
    "skins" : [
        {
            "inverseBindMatrices" : 6,
            "joints" : [
                7,
                5,
                4,
                2,
                0,
                1,
                3,
                6
            ],
            "name" : "Armature"
        }
    ],
    "accessors" : [
        {
            "bufferView" : 0,
            "componentType" : 5126,
            "count" : 744,
            "max" : [
                2.2411563396453857,
                14.134590148925781,
                2.355343818664551
            ],
            "min" : [
                -15.704618453979492,
                0.22700560092926025,
                -2.092588424682617
            ],
            "type" : "VEC3"
        },
        {
            "bufferView" : 1,
            "componentType" : 5126,
            "count" : 744,
            "type" : "VEC2"
        },
        {
            "bufferView" : 2,
            "componentType" : 5126,
            "count" : 744,
            "type" : "VEC3"
        },
        {
            "bufferView" : 3,
            "componentType" : 5121,
            "count" : 744,
            "type" : "VEC4"
        },
        {
            "bufferView" : 4,
            "componentType" : 5126,
            "count" : 744,
            "type" : "VEC4"
        },
        {
            "bufferView" : 5,
            "componentType" : 5123,
            "count" : 1620,
            "type" : "SCALAR"
        },
        {
            "bufferView" : 6,
            "componentType" : 5126,
            "count" : 8,
            "type" : "MAT4"
        }
    ],
    "bufferViews" : [
        {
            "buffer" : 0,
            "byteLength" : 8928,
            "byteOffset" : 0,
            "target" : 34962
        },
        {
            "buffer" : 0,
            "byteLength" : 5952,
            "byteOffset" : 8928,
            "target" : 34962
        },
        {
            "buffer" : 0,
            "byteLength" : 8928,
            "byteOffset" : 14880,
            "target" : 34962
        },
        {
            "buffer" : 0,
            "byteLength" : 2976,
            "byteOffset" : 23808,
            "target" : 34962
        },
        {
            "buffer" : 0,
            "byteLength" : 11904,
            "byteOffset" : 26784,
            "target" : 34962
        },
        {
            "buffer" : 0,
            "byteLength" : 3240,
            "byteOffset" : 38688,
            "target" : 34963
        },
        {
            "buffer" : 0,
            "byteLength" : 512,
            "byteOffset" : 41928
        }
    ],
    "buffers" : [
        {
            "byteLength" : 42440,
            "uri" : "data:application/octet-stream;base64,"
        }
    ]
}
